<svg xmlns="http://www.w3.org/2000/svg" width="683.464" height="193.715" viewBox="0 0 180.833 51.254" version="1.1" id="svg8"><defs id="defs2"><clipPath id="a" transform="translate(-12.21 -22.42)"><path d="M137.68 22.42h-75a13 13 0 00-11.27 6.51L14 93.85a13 13 0 000 13l37.43 64.95a13 13 0 0011.27 6.5h75a13 13 0 0011.3-6.5l37.48-64.93a13 13 0 000-13L149 28.93a13 13 0 00-11.32-6.51z" id="path12" fill="none"/></clipPath><style id="style10">.d{fill:#ffb630}.e{fill:#fb9b00}.f{fill:#f80}.h{fill:#231815}</style></defs><g id="layer1" transform="translate(-7.252 -40.14)"><g id="g95" transform="matrix(.26458 0 0 .26458 12.241 45.14)"><path d="M137.65 22.42H62.73A13.06 13.06 0 0051.42 29L14 93.83a13.07 13.07 0 000 13.06l37.46 64.89a13.06 13.06 0 0011.31 6.52h74.92a13 13 0 0011.31-6.52l37.46-64.89a13.07 13.07 0 000-13.06L149 29a13.05 13.05 0 00-11.35-6.58z" transform="translate(-12.21 -22.42)" id="path17" fill="orange"/><g clip-path="url(#a)" id="g37"><path class="d" id="polygon19" d="M55.93 133.46l-12.95 22.43h25.9z"/><path class="e" id="polygon21" d="M81.83 133.46l-12.95 22.43h25.9z"/><path class="f" id="polygon23" d="M94.79 155.92l12.96-22.43H81.84z"/><path id="polygon25" fill="#ffaa10" d="M68.88 155.92l12.95-22.43h-25.9z"/><path class="d" id="polygon27" d="M42.98 111.02l-12.95 22.44h25.9z"/><path class="f" id="polygon29" d="M68.9 111.1l-12.95 22.43h25.91z"/><path class="d" id="polygon31" d="M107.73 133.46l-12.95 22.43h25.91z"/><path class="e" id="polygon33" d="M30.03 133.46l12.95-22.44h-25.9z"/><path class="f" id="polygon35" d="M42.98 155.89l12.95-22.43h-25.9z"/></g><path class="h" d="M45.56 36.91a1.13 1.13 0 01.83.34 1.19 1.19 0 01.35.85 1.2 1.2 0 01-1.18 1.19h-1.77a.08.08 0 00-.07 0 .08.08 0 000 .07.91.91 0 01.19.54 1 1 0 01-.06.34 1 1 0 01-.63.63l-.8.32h.72A1.84 1.84 0 0145 43.13v2.26a1.84 1.84 0 01-1.83 1.83h-4.63c-.15 0-.22.07-.22.21v.45c0 .14.07.21.22.21h5.86a1.69 1.69 0 011.27.52 1.72 1.72 0 01.46 1.16v.13a21.37 21.37 0 01-.34 2.76A2.88 2.88 0 0145.2 54a2.78 2.78 0 01-1.81.87 11.89 11.89 0 01-1.25.08h-.06a1.58 1.58 0 01-1.06-.4 2.25 2.25 0 01-.67-1.07 1.27 1.27 0 010-.32 1 1 0 01.17-.57.84.84 0 01.73-.4h.6a1.54 1.54 0 00.56-.08.62.62 0 00.3-.3 4.77 4.77 0 00.23-1 .25.25 0 000-.15.18.18 0 00-.14-.06h-4.26c-.15 0-.22.07-.22.21v3.48a1.47 1.47 0 01-.45 1.08 1.56 1.56 0 01-2.17 0 1.48 1.48 0 01-.46-1.08v-2.03s0-.07-.05-.08c-.05-.01-.06 0-.09 0a20.1 20.1 0 01-4.58 2.93 2 2 0 01-.74.15 1.81 1.81 0 01-.55-.09 2.29 2.29 0 01-1.09-.75 1 1 0 01-.24-.66 1.13 1.13 0 01.68-1 20.11 20.11 0 004.05-2 .06.06 0 000-.08.07.07 0 00-.07-.05h-1.18a.07.07 0 00-.06 0 .34.34 0 01-.42.3l-1.24-.13a1.29 1.29 0 01-1.12-1.71c.24-.87.45-1.76.65-2.68A2.31 2.31 0 0130 45.2a2.15 2.15 0 011.42-.51H35a.19.19 0 00.21-.21V44a.19.19 0 00-.21-.21h-4.25A1.83 1.83 0 0128.92 42v-.4a.15.15 0 01-.21 0c-.29-.23-.67-.49-1.14-.8a1.13 1.13 0 01-.53-.87v-.14a1.16 1.16 0 01.34-.83 14 14 0 001.71-2.44 1.9 1.9 0 01.9-.87 1.78 1.78 0 01.74-.17 1.43 1.43 0 01.46.07l.53.14a.76.76 0 01.53.45.67.67 0 01.08.33.78.78 0 01-.08.36q0 .09.06.09h2.58a1.62 1.62 0 011.17.48 1.59 1.59 0 01.49 1.18l.06.07a.05.05 0 00.07 0 10.29 10.29 0 001.41-2.08 2.13 2.13 0 01.89-.87 1.79 1.79 0 01.78-.19 3 3 0 01.42 0l.53.13a.87.87 0 01.55.46.7.7 0 01.1.36.81.81 0 01-.08.34c0 .07 0 .11.06.11zm-16.24 4.24a.06.06 0 000 .09H31.54a.15.15 0 00.13-.06.1.1 0 000-.13 15.71 15.71 0 00-.8-1.58.19.19 0 00-.12-.07.09.09 0 00-.11 0 16.4 16.4 0 01-1.32 1.75zM35 48.09a.19.19 0 00.21-.21v-.45a.19.19 0 00-.21-.21h-2.6a.24.24 0 00-.26.19l-.1.47a.14.14 0 000 .14.19.19 0 00.14.07zm-2.1-6.88H37.7a.05.05 0 000-.07 13.26 13.26 0 00-1.64-1.12.44.44 0 01-.21-.35.4.4 0 01.14-.37H34a.05.05 0 00-.06 0 .08.08 0 000 .07 1.06 1.06 0 01.15.52 1 1 0 01-.07.38 1.14 1.14 0 01-.63.68zm8.8 3.48a.19.19 0 00.21-.21V44a.19.19 0 00-.21-.21h-3.16c-.15 0-.22.07-.22.21v.44c0 .14.07.21.22.21zm-3.29-3.54a.07.07 0 000 .09h2.97a.12.12 0 00.12-.06.19.19 0 000-.13 18.59 18.59 0 00-1-1.64.42.42 0 00-.34-.17h-.06a.35.35 0 00-.32.17 17.17 17.17 0 01-1.37 1.74z" transform="translate(-12.21 -22.42)" id="path39"/><path class="h" d="M49.63 53.82a1.09 1.09 0 01-.77-.32 1.06 1.06 0 01-.33-.77A2.15 2.15 0 0149.4 51c1.11-.87 2.06-1.63 2.84-2.29.78-.66 1.53-1.36 2.24-2.09a10 10 0 001.62-2.06 3.64 3.64 0 00.53-1.78 2.1 2.1 0 00-.7-1.67 2.53 2.53 0 00-1.72-.61 4 4 0 00-2.53 1 1.78 1.78 0 01-1.14.4A1.54 1.54 0 0149 40.26a1.34 1.34 0 01.48-1 7.79 7.79 0 015-1.8 6.61 6.61 0 014.3 1.36 4.68 4.68 0 011.67 3.83 6 6 0 01-.4 2.12 7.72 7.72 0 01-1.24 2.08 22.34 22.34 0 01-1.68 1.88q-.86.84-2.19 2a.11.11 0 000 .08h.07a19.14 19.14 0 012.13-.17h2.36a1.55 1.55 0 011.14.47 1.58 1.58 0 01.36 1.12 1.57 1.57 0 01-1.6 1.59z" transform="translate(-12.21 -22.42)" id="path41"/><path class="h" d="M64.07 53.87a1.49 1.49 0 01-1.07-.46 1.48 1.48 0 01-.45-1.09 1.5 1.5 0 01.45-1.1 1.52 1.52 0 011.11-.45H67a.19.19 0 00.21-.21v-8.8a.19.19 0 00-.21-.21h-2.4a1.16 1.16 0 01-.84-.35 1.13 1.13 0 01-.34-.83 1.44 1.44 0 01.32-.91 1.29 1.29 0 01.84-.48 14 14 0 002.42-.62 8.23 8.23 0 012.64-.65 1.35 1.35 0 011 .41 1.38 1.38 0 01.4 1v11.44a.19.19 0 00.21.21h2.47a1.54 1.54 0 011.56 1.55 1.55 1.55 0 01-1.56 1.55z" transform="translate(-12.21 -22.42)" id="path43"/><path class="h" d="M77.45 37.83A1.83 1.83 0 0179.28 36h15.13a1.83 1.83 0 011.83 1.83v16.33a1.64 1.64 0 01-.49 1.21 1.68 1.68 0 01-1.22.5h-.67a1 1 0 01-.73-.31 1 1 0 01-.31-.72c0-.09 0-.13-.12-.13H80.82a.12.12 0 00-.13.13 1 1 0 01-1 1h-.59a1.56 1.56 0 01-1.15-.48 1.52 1.52 0 01-.47-1.14zm3.24 13.76a.19.19 0 00.22.21h11.7a.19.19 0 00.21-.21V39.44a.19.19 0 00-.21-.21h-11.7a.19.19 0 00-.22.21zm1.5-8.46A1.84 1.84 0 0184 41.29h5.44a1.84 1.84 0 011.84 1.84V48a1.83 1.83 0 01-1.84 1.83H84A1.83 1.83 0 0182.19 48zm5.74 4a.19.19 0 00.21-.21v-2.69a.19.19 0 00-.21-.22h-2.57a.19.19 0 00-.21.22v2.65a.19.19 0 00.21.21z" transform="translate(-12.21 -22.42)" id="path45"/><path class="h" d="M72.08 83.42a2.14 2.14 0 011.6.67 2.21 2.21 0 01.67 1.65v1.32a2.24 2.24 0 01-.67 1.63 2.13 2.13 0 01-1.6.69c-.19 0-.29.08-.29.24v7a3.18 3.18 0 01-1 2.34 3.14 3.14 0 01-2.29 1h-1.63a1.53 1.53 0 01-1.16-.49 1.62 1.62 0 01-.47-1.13c0-.14-.06-.2-.2-.2h-2.21a.43.43 0 00-.49.49v3.3a11.23 11.23 0 01-.52 3.79 4.1 4.1 0 01-1.82 2.16 10.28 10.28 0 01-3.82 1.12h-.44a3.46 3.46 0 01-2.21-.79 5 5 0 01-1.73-2.46 3 3 0 01-.14-.84 2.62 2.62 0 01.39-1.38 2.22 2.22 0 011.92-1h.79a.94.94 0 00.61-.15.74.74 0 00.18-.59v-3.2a.44.44 0 00-.5-.49h-1.57a2.79 2.79 0 01-2-.86 2.9 2.9 0 010-4.14 2.79 2.79 0 012-.86h1.57a.44.44 0 00.5-.49v-1.88a.44.44 0 00-.5-.49h-2.9a2.9 2.9 0 01-2.15-.89 2.87 2.87 0 01-.88-2.11 2.83 2.83 0 01.88-2.1 3 3 0 012.12-.86h2.9a.44.44 0 00.5-.49v-1.77c0-.33-.15-.49-.45-.49h-.59A3.7 3.7 0 0150.82 77a.91.91 0 00-.3-.68c-1-.76-1.75-1.38-2.41-1.87-.1-.07-.14 0-.14.09a1.86 1.86 0 01-1.83 1.82h-4a.44.44 0 00-.49.5v.24a.44.44 0 00.49.5h4.92a2.58 2.58 0 110 5.16h-18a2.45 2.45 0 01-1.82-.76 2.63 2.63 0 010-3.64 2.45 2.45 0 011.83-.76h5.36a.44.44 0 00.49-.5v-.24a.44.44 0 00-.49-.5H31a2.22 2.22 0 01-1.67-.71 2.43 2.43 0 010-3.39 2.23 2.23 0 011.67-.75h3.4a.43.43 0 00.49-.49v-.2a.43.43 0 00-.49-.49h-4.65a2.51 2.51 0 010-5h4.73c.29 0 .44-.13.44-.39v-.1a3.29 3.29 0 011-2.39 3.32 3.32 0 014.77 0 3.29 3.29 0 011 2.39v.1a.34.34 0 00.39.39h4.72a2.36 2.36 0 011.75.74 2.54 2.54 0 010 3.54 2.36 2.36 0 01-1.75.74h-4.64a.43.43 0 00-.49.49V71a.43.43 0 00.49.49H47a1 1 0 01.69.3.92.92 0 01.3.69 26.91 26.91 0 005.17-8.08 4 4 0 011.77-2 3.63 3.63 0 011.68-.44 3.77 3.77 0 01.88.1l.25.1a2.5 2.5 0 011.77 1.33 2.59 2.59 0 01.1 2.21.25.25 0 000 .22.21.21 0 00.18.13h3.89a.45.45 0 00.19-.05 3 3 0 01.59 0 2 2 0 011.13.34l1.43.94A2.53 2.53 0 0168.24 69a2.35 2.35 0 01.1.69A2.53 2.53 0 0168 71c-.69 1.15-1.43 2.28-2.22 3.4a.19.19 0 000 .24.23.23 0 00.22.15h1.58a4.28 4.28 0 014.28 4.28v4.09c-.07.18.03.26.22.26zm-28.74.49a4.28 4.28 0 014.28 4.29v14.71a9.74 9.74 0 01-.47 3.35 3.68 3.68 0 01-1.65 1.92 8.41 8.41 0 01-3.15 1H42a3.28 3.28 0 01-2-.69 4.46 4.46 0 01-1.47-2.16 2.08 2.08 0 01-.15-.74 2 2 0 01.39-1.18 1.89 1.89 0 011.67-.94.91.91 0 00.55-.12.7.7 0 00.14-.52v-1a.43.43 0 00-.49-.49h-4.83a.43.43 0 00-.49.49v4.33a3 3 0 01-.94 2.24 3.08 3.08 0 01-2.24.91 3 3 0 01-2.21-.91 3 3 0 01-.91-2.24v-18a4.28 4.28 0 014.28-4.29zm-2.22 5.71a.43.43 0 00-.49-.49h-4.82a.43.43 0 00-.49.49v.45a.43.43 0 00.49.49h4.82a.43.43 0 00.49-.49zm-5.8 6.6a.43.43 0 00.49.49h4.82a.43.43 0 00.49-.49v-.49a.44.44 0 00-.49-.5h-4.82a.44.44 0 00-.49.5zM60.07 72a.33.33 0 000-.29.23.23 0 00-.22-.15h-2.58a.8.8 0 00-.74.44c-.49.82-1 1.63-1.58 2.42a.19.19 0 000 .24.23.23 0 00.22.15h2.66a.81.81 0 00.74-.44c.57-.89 1.08-1.68 1.5-2.37zm2.76 8.67a.43.43 0 00-.49.49v1.77a.43.43 0 00.49.49h1.92a.43.43 0 00.49-.49v-1.77a.43.43 0 00-.49-.49zm1.92 11.61a.43.43 0 00.49-.49v-1.92a.43.43 0 00-.49-.49h-1.92a.43.43 0 00-.49.49v1.92a.43.43 0 00.49.49z" transform="translate(-12.21 -22.42)" id="path47"/><path class="h" d="M119.68 81h-12.85a.32.32 0 00-.29.15.29.29 0 00-.05.29q4.62 12.36 14.32 17.82a3.12 3.12 0 011.62 2.27 2.33 2.33 0 01.1.68 3.13 3.13 0 01-.74 2 .81.81 0 00-.14.2 5.3 5.3 0 01-2.86 2 3.75 3.75 0 01-1.18.2 4.19 4.19 0 01-2.12-.6 31.46 31.46 0 01-7.08-5.85 43.85 43.85 0 01-7.24-11.37.19.19 0 00-.34 0A34.15 34.15 0 0186.5 106a4.41 4.41 0 01-2.16.6 4 4 0 01-1.08-.15 5.93 5.93 0 01-2.91-1.82 3.24 3.24 0 01-.79-2.12V102A2.87 2.87 0 0181 99.81 27.42 27.42 0 0089.16 93a31.6 31.6 0 005.71-11.57.37.37 0 00-.07-.34.41.41 0 00-.32-.15H82.07a3.79 3.79 0 110-7.58h13.64a.48.48 0 00.54-.49c.1-1.64.18-4.5.25-8.56a4.05 4.05 0 011.23-2.86 4 4 0 015.7 0 3.74 3.74 0 011.14 2.76q0 3.93-.4 8.66a.47.47 0 00.13.34.39.39 0 00.32.15h15.06a3.79 3.79 0 110 7.58z" transform="translate(-12.21 -22.42)" id="path49"/><path class="h" d="M168.75 64.28a3.56 3.56 0 01.84-.1 2.69 2.69 0 011.52.49l1.28.89a2.9 2.9 0 011.23 1.87 2.35 2.35 0 01.1.69 3 3 0 01-.44 1.52 58.72 58.72 0 01-6.4 8.61c-.23.27-.22.5.05.69a24 24 0 005.41 3.15 2.69 2.69 0 011.58 1.91 3.44 3.44 0 01.1.74 2.55 2.55 0 01-.6 1.63 22.19 22.19 0 00-1.57 2.46 1 1 0 01-1.33.44c-.07 0-.1 0-.1.1V91a4.27 4.27 0 01-4.28 4.28h-10.53a.44.44 0 00-.49.5v6.74a9 9 0 01-.67 3.86 4.23 4.23 0 01-2.44 2 15.33 15.33 0 01-5.41.93h-.15a4 4 0 01-2.51-.88 5.44 5.44 0 01-1.72-2.42 2.05 2.05 0 01-.2-.83 2.12 2.12 0 01.4-1.23 2 2 0 011.77-1h2.46a1.56 1.56 0 00.81-.15c.15-.09.22-.29.22-.59v-6.48a.44.44 0 00-.49-.5h-10.83a4.08 4.08 0 01-3-1.25 4.13 4.13 0 01-1.26-3v-1.41c0-.09-.07-.13-.2-.09a1.56 1.56 0 01-1.2 0 2 2 0 01-1-.84c-.3-.53-.63-1-1-1.58a2.69 2.69 0 01-.44-1.47 2.85 2.85 0 01.1-.74 2.36 2.36 0 011.48-1.67 26.71 26.71 0 005-2.71c.29-.2.31-.39.05-.59-1-.95-1.87-1.76-2.66-2.41a.24.24 0 00-.3 0 1.35 1.35 0 01-1.06.24 1.61 1.61 0 01-1-.54c-.36-.46-.75-.92-1.18-1.38a2.71 2.71 0 01-.78-1.92 2.65 2.65 0 011-2.16 27.44 27.44 0 006.59-7.19 5.53 5.53 0 012.22-2 4.59 4.59 0 012-.49 3.64 3.64 0 01.79.1l1.67.3a1.17 1.17 0 01.93.69 1.14 1.14 0 010 1.13c-.06.13 0 .19.1.19h3.45a.43.43 0 00.24 0 7.09 7.09 0 01.79 0 3.62 3.62 0 011.28.24l1.62.64a.18.18 0 00.15-.15 1.71 1.71 0 01.17-1.45 2 2 0 011.21-.86l1.18-.25a5.32 5.32 0 01.69 0 3.43 3.43 0 011.77.49 3.82 3.82 0 011.58 2c.26.78.56 1.57.88 2.36.32.79.05 0 .05-.1a2.8 2.8 0 01.89-2.09 2.89 2.89 0 012.11-.86h7a1 1 0 00.48-.13zm-35 34.65a6.8 6.8 0 012.7-2 4.6 4.6 0 013.1-.15 3 3 0 012.12 2.81 2.54 2.54 0 01-.49 1.47 32.44 32.44 0 01-4.88 5.47 4 4 0 01-2.7 1h-.2a4.78 4.78 0 01-3-1.13 2.63 2.63 0 01-1-2.12 2.82 2.82 0 011.09-2.31 23.37 23.37 0 003.22-3.04zm.49-10.49c-.07 0-.09.08-.08.13a.13.13 0 00.13.07h34.4a.08.08 0 00.07-.07s0-.09-.07-.13a28.74 28.74 0 01-7.73-5.12.08.08 0 00-.1 0v.12a2 2 0 01-.62 1.45 2 2 0 01-1.5.62h-15a1.65 1.65 0 01-1.21-.52 1.71 1.71 0 01-.52-1.25s0-.06-.07-.08a.12.12 0 00-.12 0 32.31 32.31 0 01-7.62 4.78zm3.15-15.11a.51.51 0 00-.74 0l-.27.3-.22.24c-.23.27-.22.5 0 .69 1.05.79 1.93 1.46 2.65 2a.43.43 0 00.69 0 2.7 2.7 0 01.3-.34l.29-.3c.23-.26.22-.49 0-.69-.63-.42-1.53-1.08-2.74-1.9zm6.89-3.74a.34.34 0 00-.05-.29.3.3 0 00-.25-.15h-3.48a.55.55 0 00-.47.22c-.12.15-.09.27.07.37.76.46 1.64 1 2.66 1.72a.4.4 0 00.64-.15c.33-.62.6-1.19.84-1.72zm2.36 9a.19.19 0 000 .25.24.24 0 00.22.14h9.84a.24.24 0 00.22-.14.21.21 0 000-.25 43.37 43.37 0 01-4.92-9.83.19.19 0 00-.34 0 35.06 35.06 0 01-5.06 9.84zm17.77-8a.26.26 0 000-.28.29.29 0 00-.27-.12h-3.94a.3.3 0 00-.24.12.21.21 0 000 .28c.62 1.11 1.23 2.1 1.82 3a.32.32 0 00.3.15.33.33 0 00.29-.15c.54-.77 1.21-1.75 2-2.96zm-3.5 31.05a2.61 2.61 0 01-.78-1.92v-.29a2.41 2.41 0 011.23-1.92 5 5 0 012.56-.69h.44a4.78 4.78 0 012.72 1.18q2.59 2.22 4.52 4.18a2.86 2.86 0 01.84 2 2.92 2.92 0 01-.05.54 3.17 3.17 0 01-1.57 2.32 4.11 4.11 0 01-2.12.59 4.35 4.35 0 01-.84-.1 4.58 4.58 0 01-2.65-1.53c-1.21-1.32-2.7-2.77-4.34-4.32z" transform="translate(-12.21 -22.42)" id="path51"/><path class="h" d="M91.27 113.43a3.08 3.08 0 01-2.13-.73 2.57 2.57 0 010-3.78 3 3 0 012.13-.75 3 3 0 012.08.75 2.61 2.61 0 010 3.78 3 3 0 01-2.08.73zm-.12 18.68a2.44 2.44 0 01-2.44-2.45v-11.5a2.32 2.32 0 01.71-1.73 2.36 2.36 0 011.73-.72h.2a2.36 2.36 0 011.73.72 2.33 2.33 0 01.72 1.73v11.5a2.46 2.46 0 01-2.45 2.45z" transform="translate(-12.21 -22.42)" id="path53"/><path class="h" d="M100.38 132.11a2.46 2.46 0 01-2.45-2.45v-11.84a2 2 0 01.61-1.49 1.94 1.94 0 011.47-.62h.23a2.11 2.11 0 011.42.52 2.19 2.19 0 01.74 1.33v.15s0 .05.07.05a.13.13 0 00.1 0 7.42 7.42 0 015.2-2.42 4.41 4.41 0 013.84 1.75 8.28 8.28 0 011.25 4.92v7.68a2.44 2.44 0 01-2.44 2.45h-.23a2.44 2.44 0 01-2.44-2.45v-7.09a4.25 4.25 0 00-.45-2.27 1.69 1.69 0 00-1.47-.63 2.83 2.83 0 00-1.33.3 5.89 5.89 0 00-1.31 1 .66.66 0 00-.2.48v8.21a2.36 2.36 0 01-.72 1.73 2.33 2.33 0 01-1.73.72z" transform="translate(-12.21 -22.42)" id="path55"/><path class="h" d="M45.36 134.53A3.16 3.16 0 0147 136.8a5.58 5.58 0 010 .73 3.53 3.53 0 01-.64 2 3.39 3.39 0 01-2.28 1.47 5 5 0 01-.64.05 3.54 3.54 0 01-2.06-.64 39.29 39.29 0 00-3.45-1.92 2.82 2.82 0 01-1.53-1.87 3.48 3.48 0 01-.09-.79 2.69 2.69 0 01.49-1.52 4.42 4.42 0 012.26-1.68 4.81 4.81 0 011.18-.14 3.91 3.91 0 011.58.34c1.28.54 2.46 1.11 3.54 1.7zm5.56 16.88a1.32 1.32 0 01-.93-.36 1.22 1.22 0 01-.39-.92h-.05c-1.64 4.11-3.32 7.94-5 11.52a3.26 3.26 0 01-2.17 1.87 4.47 4.47 0 01-.93.1 3.42 3.42 0 01-1.92-.59 4.22 4.22 0 01-1.78-2.56 4.45 4.45 0 01-.14-1.08 4.26 4.26 0 01.54-2.07q2.26-4.19 4.23-8.61a3.37 3.37 0 012.26-1.92 3.86 3.86 0 01.89-.1 3.13 3.13 0 012 .69l1.77 1.33a.17.17 0 00.22 0 .25.25 0 00.13-.22v-.34a3.53 3.53 0 013.54-3.55.34.34 0 00.39-.39v-18.93a3.32 3.32 0 011.28-2.71 3.43 3.43 0 012.17-.79 5.74 5.74 0 01.74 0l1 .25a2.36 2.36 0 001 0q6.24-1.23 11.61-2.76a7.29 7.29 0 011.82-.24 8 8 0 011.72.19 6.29 6.29 0 013 1.83 2.16 2.16 0 01.69 1.57 2.74 2.74 0 01-.1.69 2.18 2.18 0 01-1.75 1.69 144.73 144.73 0 01-15.35 3.05.49.49 0 00-.49.55v1.82a.43.43 0 00.49.49h17.47a3.34 3.34 0 012.39 1 3.24 3.24 0 011 2.39 3.29 3.29 0 01-1 2.41 3.25 3.25 0 01-2.39 1h-1.72a.43.43 0 00-.49.49v5.91a.43.43 0 00.49.49H80a3.24 3.24 0 012.41 1 3.32 3.32 0 011 2.41 3.36 3.36 0 01-3.4 3.37zM48.66 121a3.18 3.18 0 011.53 2.26 5 5 0 01.05.64 3.56 3.56 0 01-.69 2.12 3.47 3.47 0 01-2.37 1.43 3.81 3.81 0 01-.59 0 3.65 3.65 0 01-2.11-.68c-1-.66-2.19-1.32-3.4-2A3 3 0 0139.6 123a2.72 2.72 0 01.45-2.32 4.23 4.23 0 012.31-1.57 3.59 3.59 0 011.13-.2 4.4 4.4 0 011.68.35c1.24.56 2.41 1.15 3.49 1.74zm6.45 34.35a6.79 6.79 0 012.9-1.87 5.68 5.68 0 011.65-.24 6.18 6.18 0 011.7.24 3 3 0 011.92 1.92 2.77 2.77 0 01.15.89 2.63 2.63 0 01-.64 1.67 46.08 46.08 0 01-5.37 5.46 4.31 4.31 0 01-2.85 1.09h-.25a5.31 5.31 0 01-3.1-1.23 2.75 2.75 0 01-1.08-2.22 2.9 2.9 0 011.23-2.41 33.8 33.8 0 003.74-3.3zm6.3-17.62a.43.43 0 00-.49.49v5.91a.43.43 0 00.49.49h7.53a.43.43 0 00.49-.49v-5.91a.43.43 0 00-.49-.49zm9.35 20.38a2.71 2.71 0 01-.79-1.92 2.47 2.47 0 010-.44 2.53 2.53 0 011.38-2 4.78 4.78 0 012.41-.64 3.66 3.66 0 01.64.05 4.56 4.56 0 012.76 1.33c1.64 1.54 3.06 3 4.28 4.33a3 3 0 01.84 2.06 2.56 2.56 0 01-.1.64 3.3 3.3 0 01-1.68 2.32 4 4 0 01-2.06.59 3.4 3.4 0 01-1-.15 4.48 4.48 0 01-2.66-1.67c-1.08-1.35-2.45-2.86-4.02-4.5z" transform="translate(-12.21 -22.42)" id="path57"/><path class="h" d="M136.14 142.85a4.53 4.53 0 01.89 2.71 5 5 0 01-.94 2.95 1.8 1.8 0 01-1.52.79h-.25a2 2 0 01-1.62-1.13c-.27-.59-.54-1.22-.84-1.87a.12.12 0 00-.15-.08.12.12 0 00-.09.13v15.94a3.45 3.45 0 11-6.9 0v-12.75l-.07-.07c-.07-.07-.09 0-.12.07q-1 2.57-2 4.58a1.62 1.62 0 01-1.53.94h-.24a2 2 0 01-1.73-1.18 6.74 6.74 0 01-.68-3v-.34a7.15 7.15 0 011-3.25 50.56 50.56 0 004.65-12.02.33.33 0 00-.08-.32.37.37 0 00-.27-.12H122a3.24 3.24 0 01-2.41-1 3.38 3.38 0 010-4.78 3.23 3.23 0 012.41-1h2.26a.44.44 0 00.49-.5v-6.2a3.42 3.42 0 011-2.46 3.41 3.41 0 014.88 0 3.42 3.42 0 011 2.46v6.2a.44.44 0 00.49.5h.39a4.27 4.27 0 014.28 4.28v2a.13.13 0 00.1.12.12.12 0 00.15-.07 51.54 51.54 0 004.23-11.42 4 4 0 011.77-2.46 3.73 3.73 0 012.07-.64 4.3 4.3 0 01.84.09 3.83 3.83 0 012.41 1.68 3.42 3.42 0 01.59 1.92 3.21 3.21 0 01-.15.93 69.48 69.48 0 01-5.61 14.72 2.87 2.87 0 01-2.31 1.57 2.71 2.71 0 01-.54.05 3.38 3.38 0 01-2.22-.83c-.26-.2-.51-.38-.74-.54a3.43 3.43 0 01-1.23-2 4 4 0 010-.59 3.13 3.13 0 01.5-1.68.21.21 0 000-.19.17.17 0 00-.15-.1h-4.33a.43.43 0 00-.49.49v.79a1.28 1.28 0 00.34.88c.92 1.22 2.32 3.18 4.12 5.8zm18.17 9.8a3.18 3.18 0 01-.4-1.53 3.59 3.59 0 01.2-1.13 3.25 3.25 0 011.77-2 3.51 3.51 0 011.58-.39 3.78 3.78 0 011.18.19 3.47 3.47 0 012.11 1.77q2.66 5.07 4.29 9.06a4.2 4.2 0 01.29 1.53 4 4 0 01-.34 1.57 4.47 4.47 0 01-2.17 2.36l-.59.3a2.57 2.57 0 01-1.18.29 2.37 2.37 0 01-1-.24 2.86 2.86 0 01-1.57-1.68.45.45 0 00-.49-.34q-8.91.84-17.33 1.53h-.39a3.9 3.9 0 01-2.46-.89 4.19 4.19 0 01-1.53-2.56 3.92 3.92 0 01-.05-.59 2.94 2.94 0 01.79-2 3.24 3.24 0 012.41-1.28 5 5 0 001-.05.62.62 0 00.57-.57 104.81 104.81 0 004.28-14.37 4.1 4.1 0 011.87-2.66 3.92 3.92 0 012.21-.69 5.28 5.28 0 01.94.1l.1.05a3.72 3.72 0 012.56 1.87 3.8 3.8 0 01.49 1.82 3.43 3.43 0 01-.25 1.28q-2.41 6.84-4.77 12.31a.25.25 0 00.05.27.3.3 0 00.24.12l6.5-.39a.3.3 0 00.25-.15.46.46 0 000-.35c-.36-.81-.77-1.68-1.16-2.56zM153 124.3a3.4 3.4 0 01-.15-1 3.24 3.24 0 01.49-1.67 3.47 3.47 0 012.12-1.73 3.63 3.63 0 011-.14 3 3 0 011.58.44 3.5 3.5 0 011.72 2.07 61.68 61.68 0 004.33 10.09 4.87 4.87 0 01.69 2.51 3.54 3.54 0 01-.1.83 5.19 5.19 0 01-1.53 3.06 3.16 3.16 0 01-2.31 1h-.29a2.63 2.63 0 01-2.22-1.48A79.23 79.23 0 01153 124.3z" transform="translate(-12.21 -22.42)" id="path59"/><path d="M139.09 30.48l1 .48a12.17 12.17 0 00.12 3.18 13.34 13.34 0 00.67 2.48c.47 1.3.75 1.56 1.36 2.92a15.66 15.66 0 011.19 3.46 10.21 10.21 0 01.15 4 9.67 9.67 0 01-1 2.83 12.25 12.25 0 01-3.72 3.85 28.66 28.66 0 01-3.43 2.32l-.5-.32a18.49 18.49 0 003.42-3.34 10.63 10.63 0 001.7-2.68 8.81 8.81 0 00.49-5.56A8.52 8.52 0 00139 41a8.75 8.75 0 00-1.62-1.56c-1 2.18-1.71 4-2.23 5.21-.9 2.14-1.15 2.77-1.92 4.54-.11.26-.72 1.62-1.95 4.34a19.22 19.22 0 01-.82 1.74 8.64 8.64 0 01-3 3.13 6.87 6.87 0 01-7.38-.56c-.31-.25-2.59-2.09-2.24-4.75a5.17 5.17 0 012.57-3.6c2.69-1.59 5.69-.11 6.28.2a7.5 7.5 0 012.89 2.78q2.17-4.69 4.31-9.59 2.72-6.3 5.2-12.4z" transform="translate(-12.21 -22.42)" id="path61" fill="#fff"/></g><g aria-label="来場者質問票Admission Questionnaire" id="text99" style="line-height:0" font-style="normal" font-weight="400" font-size="10.583" font-family="Gen Shin Gothic" letter-spacing=".46" fill="#000" fill-opacity="1" stroke="none" stroke-width=".265" font-variant="normal" font-stretch="normal"><path d="M81.928 60.201h-6.984q1.35 1.813 3.377 3.434 2.025 1.62 4.012 2.47-.617.578-1.022 1.254-1.968-.984-3.955-2.701t-3.415-3.685v7.157h-1.524v-7.119q-1.408 1.93-3.376 3.608-1.968 1.678-3.936 2.662-.463-.694-1.022-1.215 1.987-.849 3.993-2.45 2.007-1.602 3.357-3.415h-6.945v-1.408h7.93v-4.9h-6.985v-1.409h6.984v-2.373h1.524v2.373H81.1v1.408H73.94v4.9h7.987zm-14.894-5.363l1.274-.502q1.447 2.064 1.871 3.704l-1.37.521q-.193-.752-.694-1.813-.502-1.061-1.08-1.91zM77.452 58.6l-1.215-.405q1.042-1.66 1.987-3.936l1.505.482q-1.312 2.566-2.277 3.859z" style="line-height:1.25;-inkscape-font-specification:'Gen Shin Gothic'" id="path40" font-size="19.756" letter-spacing=".46"/><path d="M99.675 53.352V51.79h-6.328v1.563zm0 2.605v-1.582h-6.328v1.582zm1.35-5.267v6.366h-9.029V50.69zm-10.707 9.685l.328 1.312q-2.412 1.215-5.807 2.836l-.579-1.428q1.196-.482 2.682-1.177v-6.174h-2.315v-1.389h2.315v-4.109h1.37v4.11h2.122v1.388h-2.122v5.557zm12.116-.965h-8.122q-.348.675-.85 1.39h8.49q-.02.404-.058.597-.213 3.01-.483 4.38-.25 1.35-.675 1.794-.367.405-1.1.501-.83.039-1.968-.019 0-.694-.328-1.196.984.077 1.679.077.444 0 .598-.212.56-.579.887-4.708h-1.543q-.617 1.833-1.717 3.55-1.08 1.698-2.315 2.643-.328-.424-1.042-.848 1.158-.772 2.18-2.22 1.023-1.465 1.66-3.125h-1.91q-.792 1.525-2.123 3.01-1.331 1.486-2.682 2.335-.327-.483-.964-.907 1.215-.656 2.411-1.872 1.216-1.215 2.026-2.566h-1.987q-1.177 1.332-2.566 2.258-.444-.54-1.003-.907 2.47-1.466 3.897-3.955h-2.759v-1.235h12.367z" style="line-height:1.25;-inkscape-font-specification:'Gen Shin Gothic'" id="path42" font-size="19.756" letter-spacing=".46"/><path d="M113.08 56.42h1.39q1.678-1.254 3.01-2.528h-4.4zm5.364 6.578v-1.967h-8.007v1.967zm-8.007 3.203h8.007v-2.045h-8.007zm11.923-8.47h-7.389q-1.466 1.062-3.183 2.065h8.16v8.257h-1.504v-.56h-8.007v.637h-1.446V61.3q-1.409.695-3.608 1.544-.29-.52-.926-1.196 4.476-1.582 8.122-3.916h-7.698V56.42h6.772v-2.528h-5.055V52.58h5.055v-2.469h1.428v2.47h4.88v.81q1.255-1.235 2.258-2.605l1.254.675q-2.045 2.682-4.804 4.959h5.691z" style="line-height:1.25;-inkscape-font-specification:'Gen Shin Gothic'" id="path44" font-size="19.756" letter-spacing=".46"/><path d="M130.113 54.085h-2.392q-.347 2.161-1.852 3.55-.405-.579-.984-.945 1.64-1.505 1.64-4.11v-1.948l1.177.328q3.106-.386 4.553-.81l.984.906q-2.026.58-5.402.868v1.004h5.923v1.157h-2.335v2.47h-1.312zm-1.177 8.489v1.428h9.955v-1.428zm0-2.334v1.389h9.955v-1.39zm0-2.316v1.37h9.955v-1.37zm-1.408 7.062V56.94h12.83v8.045zm3.338.192l1.33.637q-2.334 1.35-6.018 2.373-.83-.887-1.1-1.1 3.82-.81 5.788-1.91zm4.61.81l1.197-.752q3.839 1.235 5.942 2.2l-1.62.733q-1.853-.965-5.518-2.18zm.348-13.06h6.79v1.157h-2.932v2.508h-1.33v-2.508h-2.74q-.483 1.66-2.045 2.72-.348-.617-.907-.964 1.89-1.235 1.89-3.396V50.69l1.12.27q3.299-.309 4.977-.791l.984.926q-2.026.56-5.788.849v.54q0 .29-.02.444z" style="line-height:1.25;-inkscape-font-specification:'Gen Shin Gothic'" id="path46" font-size="19.756" letter-spacing=".46"/><path d="M151.738 52.117h-4.245v1.66h4.245zm-4.245 4.553h4.245v-1.794h-4.245zm5.653 1.177h-5.653V68.15h-1.447V50.94h7.1zm3.145 3.01h-4.65v3.26h4.65zm1.35 4.495h-6v1.196h-1.35v-6.945h7.35zm-1.331-8.662h4.38v-1.814h-4.38zm4.38-4.592h-4.38v1.679h4.38zm1.485-1.157v15.202q0 1.39-.868 1.736-.753.251-3.53.251-.136-.733-.522-1.505 1.756.078 2.952.02.482 0 .482-.502v-8.296h-5.787v-6.906z" style="line-height:1.25;-inkscape-font-specification:'Gen Shin Gothic'" id="path48" font-size="19.756" letter-spacing=".46"/><path d="M175.735 53.622v-1.524h-3.106v1.524zm4.553 1.12h-3.164v2.256h3.164zm-7.66 0v2.256h3.107v-2.257zm-4.36 0v2.256h2.991v-2.257zm2.991-1.12v-1.524h-5.537v-1.215H182.7v1.215h-5.576v1.524h4.61v4.515H166.9v-4.515zm9.434 6.984h-12.79V59.43h12.79zm-10.9 3.048l1.331.483q-1.678 2.083-4.688 3.685-.521-.58-1.1-.965 2.971-1.35 4.457-3.203zm7.331.83l1.061-.772q3.01 1.602 4.785 3.087l-1.139.849q-1.504-1.331-4.707-3.164zm-11.633-2.527h17.594v1.215h-8.064v3.415q0 .598-.154.887-.155.309-.598.463-.637.232-2.933.232-.077-.618-.463-1.331 1.717.058 2.335.019.212-.02.27-.077.077-.058.077-.232v-3.376h-8.064z" style="line-height:1.25;-inkscape-font-specification:'Gen Shin Gothic'" id="path50" font-size="19.756" letter-spacing=".46"/><path d="M65.202 76.67h2.19l-.348-1.11q-.231-.695-.733-2.45h-.039q-.337 1.215-.723 2.45zm3.106 2.941l-.695-2.209H64.97l-.704 2.21h-.926l2.46-7.245h1.022l2.45 7.244z" style="line-height:.85;-inkscape-font-specification:'Gen Shin Gothic'" id="path52" font-size="9.878" letter-spacing=".196"/><path d="M72.237 79.737q-1.023 0-1.62-.743-.599-.743-.599-2.064 0-1.264.685-2.036.685-.781 1.64-.781.453 0 .79.154.338.145.724.473l-.058-.926V71.75h.907v7.861h-.733l-.087-.636h-.02q-.78.762-1.63.762zm-.897-1.293q.385.54 1.09.54.704 0 1.37-.733v-2.817q-.637-.569-1.303-.569-.656 0-1.1.579-.443.57-.443 1.476 0 .974.386 1.524z" style="line-height:.85;-inkscape-font-specification:'Gen Shin Gothic'" id="path54" font-size="9.878" letter-spacing=".196"/><path d="M76.715 79.611v-5.363h.743l.077.781h.03q.829-.916 1.668-.916 1.129 0 1.486 1.022.935-1.022 1.765-1.022 1.63 0 1.63 2.103v3.395h-.897v-3.28q0-.752-.241-1.09-.232-.337-.753-.337-.607 0-1.36.82v3.887h-.897v-3.28q0-.752-.24-1.09-.232-.337-.753-.337-.627 0-1.36.82v3.887z" style="line-height:.85;-inkscape-font-specification:'Gen Shin Gothic'" id="path56" font-size="9.878" letter-spacing=".196"/><path d="M86.056 79.611v-5.363h.897v5.363zm.897-6.636q-.174.164-.444.164t-.443-.164q-.174-.164-.174-.415 0-.27.174-.425.173-.164.443-.164t.444.164q.183.155.183.425 0 .25-.183.415z" style="line-height:.85;-inkscape-font-specification:'Gen Shin Gothic'" id="path58" font-size="9.878" letter-spacing=".196"/><path d="M90.37 79.737q-1.118 0-2.006-.733l.444-.599q.781.637 1.592.637.51 0 .78-.231.271-.242.271-.608 0-.193-.096-.347-.097-.155-.31-.28-.211-.135-.366-.203-.154-.077-.453-.193-.347-.135-.579-.24-.231-.107-.492-.29-.26-.183-.395-.444-.135-.26-.135-.579 0-.656.501-1.08.502-.434 1.35-.434.898 0 1.67.598l-.435.588q-.646-.482-1.234-.482-.483 0-.733.222-.242.212-.242.55 0 .173.078.308.077.126.25.242.184.106.319.164.135.057.405.164.087.028.125.048.328.125.483.193.154.067.414.222.27.144.396.299.135.144.241.385.106.242.106.531 0 .685-.52 1.138-.512.454-1.428.454z" style="line-height:.85;-inkscape-font-specification:'Gen Shin Gothic'" id="path60" font-size="9.878" letter-spacing=".196"/><path d="M95.187 79.737q-1.119 0-2.006-.733l.443-.599q.782.637 1.592.637.511 0 .781-.231.27-.242.27-.608 0-.193-.096-.347-.097-.155-.309-.28-.212-.135-.366-.203-.155-.077-.454-.193-.347-.135-.578-.24-.232-.107-.492-.29t-.396-.444q-.135-.26-.135-.579 0-.656.502-1.08.501-.434 1.35-.434.897 0 1.669.598l-.434.588q-.646-.482-1.235-.482-.482 0-.733.222-.241.212-.241.55 0 .173.077.308.077.126.25.242.184.106.32.164.134.057.404.164.087.028.126.048.328.125.482.193.154.067.415.222.27.144.395.299.135.144.241.385.107.242.107.531 0 .685-.521 1.138-.512.454-1.428.454z" style="line-height:.85;-inkscape-font-specification:'Gen Shin Gothic'" id="path62" font-size="9.878" letter-spacing=".196"/><path d="M98.595 79.611v-5.363h.897v5.363zm.897-6.636q-.174.164-.444.164t-.443-.164q-.174-.164-.174-.415 0-.27.174-.425.173-.164.443-.164t.444.164q.183.155.183.425 0 .25-.183.415z" style="line-height:.85;-inkscape-font-specification:'Gen Shin Gothic'" id="path64" font-size="9.878" letter-spacing=".196"/><path d="M105.34 78.975q-.723.762-1.755.762t-1.765-.762q-.724-.762-.724-2.045t.724-2.045q.733-.772 1.765-.772t1.756.772q.733.762.733 2.045t-.733 2.045zm-2.874-.55q.424.56 1.119.56.695 0 1.129-.56.434-.57.434-1.495 0-.926-.434-1.496-.435-.578-1.129-.578-.695 0-1.119.578-.424.57-.424 1.496t.424 1.495z" style="line-height:.85;-inkscape-font-specification:'Gen Shin Gothic'" id="path66" font-size="9.878" letter-spacing=".196"/><path d="M107.678 79.611v-5.363h.743l.077.772h.029q.926-.907 1.804-.907 1.64 0 1.64 2.103v3.395h-.907v-3.28q0-.752-.241-1.09-.242-.337-.772-.337-.386 0-.714.193-.328.193-.762.627v3.887z" style="line-height:.85;-inkscape-font-specification:'Gen Shin Gothic'" id="path68" font-size="9.878" letter-spacing=".196"/><path d="M116.915 75.965q0 1.38.588 2.2.589.82 1.563.82t1.563-.82q.588-.82.588-2.2 0-1.35-.588-2.142-.589-.79-1.563-.79-.984 0-1.572.79-.579.791-.579 2.142zm5.219 4.592l.183.713q-.444.155-1.042.155-.964 0-1.65-.473-.684-.463-1.003-1.244-1.205-.164-1.929-1.167-.723-1.004-.723-2.576 0-1.717.858-2.72.859-1.013 2.238-1.013 1.38 0 2.228 1.013.859 1.003.859 2.72 0 1.543-.695 2.537-.694.993-1.861 1.196.24.473.704.724.473.25 1.08.25.386 0 .753-.115z" style="line-height:.85;-inkscape-font-specification:'Gen Shin Gothic'" id="path70" font-size="9.878" letter-spacing=".196"/><path d="M125.387 79.737q-1.63 0-1.63-2.094v-3.395h.897v3.29q0 .742.241 1.08.242.337.772.337.405 0 .733-.202.328-.212.714-.704v-3.801h.897v5.363h-.743l-.077-.839h-.029q-.839.965-1.775.965z" style="line-height:.85;-inkscape-font-specification:'Gen Shin Gothic'" id="path72" font-size="9.878" letter-spacing=".196"/><path d="M132.172 79.737q-1.1 0-1.833-.762-.733-.762-.733-2.045 0-1.254.723-2.036.724-.781 1.698-.781 1.013 0 1.572.675.56.675.56 1.843 0 .26-.039.51h-3.617q.038.86.53 1.37.492.512 1.254.512.724 0 1.341-.425l.328.589q-.84.55-1.784.55zm-1.679-3.242h2.875q0-.81-.348-1.234-.347-.434-.984-.434-.588 0-1.032.453-.434.444-.51 1.215z" style="line-height:.85;-inkscape-font-specification:'Gen Shin Gothic'" id="path74" font-size="9.878" letter-spacing=".196"/><path d="M137.084 79.737q-1.119 0-2.006-.733l.444-.599q.781.637 1.591.637.512 0 .782-.231.27-.242.27-.608 0-.193-.097-.347-.096-.155-.308-.28-.213-.135-.367-.203-.154-.077-.453-.193-.348-.135-.58-.24-.23-.107-.491-.29-.26-.183-.396-.444-.135-.26-.135-.579 0-.656.502-1.08.502-.434 1.35-.434.898 0 1.67.598l-.435.588q-.646-.482-1.235-.482-.482 0-.733.222-.24.212-.24.55 0 .173.076.308.078.126.251.242.183.106.318.164.136.057.406.164.086.028.125.048.328.125.482.193.155.067.415.222.27.144.396.299.135.144.24.385.107.242.107.531 0 .685-.521 1.138-.511.454-1.428.454z" style="line-height:.85;-inkscape-font-specification:'Gen Shin Gothic'" id="path76" font-size="9.878" letter-spacing=".196"/><path d="M142.18 79.737q-.82 0-1.176-.463-.348-.463-.348-1.322v-2.971h-.8v-.685l.839-.048.106-1.505h.752v1.505H143v.733h-1.447v2.99q0 .521.184.782.193.26.646.26.232 0 .608-.145l.183.676q-.617.193-.994.193z" style="line-height:.85;-inkscape-font-specification:'Gen Shin Gothic'" id="path78" font-size="9.878" letter-spacing=".196"/><path d="M144.412 79.611v-5.363h.897v5.363zm.897-6.636q-.174.164-.444.164t-.444-.164q-.173-.164-.173-.415 0-.27.173-.425.174-.164.444-.164t.444.164q.183.155.183.425 0 .25-.183.415z" style="line-height:.85;-inkscape-font-specification:'Gen Shin Gothic'" id="path80" font-size="9.878" letter-spacing=".196"/><path d="M151.157 78.975q-.723.762-1.755.762-1.033 0-1.766-.762-.723-.762-.723-2.045t.723-2.045q.733-.772 1.766-.772 1.032 0 1.755.772.733.762.733 2.045t-.733 2.045zm-2.874-.55q.424.56 1.119.56.694 0 1.128-.56.434-.57.434-1.495 0-.926-.434-1.496-.434-.578-1.128-.578-.695 0-1.12.578-.424.57-.424 1.496t.425 1.495z" style="line-height:.85;-inkscape-font-specification:'Gen Shin Gothic'" id="path82" font-size="9.878" letter-spacing=".196"/><path d="M153.494 79.611v-5.363h.743l.077.772h.03q.925-.907 1.803-.907 1.64 0 1.64 2.103v3.395h-.907v-3.28q0-.752-.24-1.09-.242-.337-.773-.337-.385 0-.713.193-.328.193-.762.627v3.887z" style="line-height:.85;-inkscape-font-specification:'Gen Shin Gothic'" id="path84" font-size="9.878" letter-spacing=".196"/><path d="M159.72 79.611v-5.363h.742l.077.772h.03q.925-.907 1.803-.907 1.64 0 1.64 2.103v3.395h-.907v-3.28q0-.752-.241-1.09-.241-.337-.772-.337-.386 0-.714.193-.328.193-.762.627v3.887z" style="line-height:.85;-inkscape-font-specification:'Gen Shin Gothic'" id="path86" font-size="9.878" letter-spacing=".196"/><path d="M167.179 79.737q-.695 0-1.139-.406-.434-.405-.434-1.109 0-.868.782-1.34.79-.473 2.517-.666 0-1.36-1.1-1.36-.761 0-1.61.578l-.357-.627q1.07-.694 2.112-.694.946 0 1.399.588.463.58.463 1.611v3.3h-.743l-.077-.647h-.029q-.926.772-1.784.772zm.26-.714q.666 0 1.466-.714v-1.505q-1.312.164-1.861.492-.55.318-.55.859 0 .434.26.656.26.212.685.212z" style="line-height:.85;-inkscape-font-specification:'Gen Shin Gothic'" id="path88" font-size="9.878" letter-spacing=".196"/><path d="M171.706 79.611v-5.363h.897v5.363zm.897-6.636q-.174.164-.444.164t-.444-.164q-.173-.164-.173-.415 0-.27.173-.425.174-.164.444-.164t.444.164q.183.155.183.425 0 .25-.183.415z" style="line-height:.85;-inkscape-font-specification:'Gen Shin Gothic'" id="path90" font-size="9.878" letter-spacing=".196"/><path d="M174.612 79.611v-5.363h.743l.077.974h.029q.29-.52.685-.81.395-.3.839-.3.347 0 .57.117l-.165.79q-.222-.086-.52-.086-.377 0-.744.299-.366.299-.617.936v3.443z" style="line-height:.85;-inkscape-font-specification:'Gen Shin Gothic'" id="path92" font-size="9.878" letter-spacing=".196"/><path d="M180.702 79.737q-1.1 0-1.833-.762-.733-.762-.733-2.045 0-1.254.723-2.036.724-.781 1.698-.781 1.013 0 1.572.675.56.675.56 1.843 0 .26-.039.51h-3.617q.038.86.53 1.37.492.512 1.254.512.724 0 1.341-.425l.328.589q-.839.55-1.784.55zm-1.679-3.242h2.875q0-.81-.347-1.234-.348-.434-.984-.434-.589 0-1.033.453-.434.444-.51 1.215z" style="line-height:.85;-inkscape-font-specification:'Gen Shin Gothic'" id="path94" font-size="9.878" letter-spacing=".196"/></g></g></svg>